# xmcd CD database file
#
# Track frame offsets:
#	150
#	17577
#	42370
#	61010
#	72540
#	86012
#	104475
#	121027
#	132727
#	154040
#	176227
#	196305
#
# Disc length: 2837 seconds
#
# Revision: 1
# Processed by: cddbd v1.5.1PL0 Copyright (c) Steve Scherf et al.
# Submitted via: CDex 1.50beta8
#
DISCID=a60b130c
DTITLE=金色のガッシュベル - Collection of Golden Songs2
DYEAR=2005
DGENRE=Anime
TTITLE0=君にこの声が 届きますように
TTITLE1=約束の星
TTITLE2=Treasure Fighter
TTITLE3=ウマゴンロック
TTITLE4=ひだまりDIARY
TTITLE5=チチをもげ！〜音頭でボイ〜ン〜（みんなで踊ろう！オリジナルバージョン）
TTITLE6=私はパティ
TTITLE7=ベリーメロン 〜私の心をつかんだ良いメロン〜
TTITLE8=ワタシノユメ
TTITLE9=白い鳥、黒い鳥
TTITLE10=君にこの声が 届きますように(spring dreeze version)
TTITLE11=（ボーナストラック）LOBEファンファーレ（ショウワノートCMソング）
EXTD=YEAR: 2005
EXTT0=
EXTT1=
EXTT2=
EXTT3=
EXTT4=
EXTT5=
EXTT6=
EXTT7=
EXTT8=
EXTT9=
EXTT10=
EXTT11=
PLAYORDER=
